<svg width="101" height="88" viewBox="0 0 101 88" fill="none" xmlns="http://www.w3.org/2000/svg">
<path d="M26.6371 52.1023L35.4626 79.0978C36.0899 81.0158 38.4518 81.702 40.0082 80.4162L66.3663 58.6576C66.3663 58.6576 38.3572 47.7321 38.3572 48.328C38.3572 48.9239 26.6371 52.1023 26.6371 52.1023Z" fill="#003C5F"/>
<path d="M96.1805 0.218567C78.9674 7.02637 23.407 29.7943 2.37741 38.4205C-0.398544 39.5599 -0.232638 43.5423 2.62699 44.4541L26.637 52.1023L35.4341 79.0119C35.7885 80.0939 36.6813 80.7917 37.6782 80.9795C38.488 81.1315 39.6814 59.1873 39.6814 59.1873C39.6814 59.1873 64.9218 77.9059 76.8944 86.7468C79.8443 88.9239 84.0566 87.2867 84.7551 83.687C88.3213 65.3061 97.2393 19.3461 100.287 3.63413C100.746 1.27148 98.418 -0.666969 96.1805 0.218567Z" fill="#003C5F"/>
<path d="M37.679 80.9794C38.4882 81.1315 39.6815 59.1873 39.6815 59.1873L81.1491 20.2374C81.4285 19.974 81.0938 19.5301 80.7634 19.7273L26.6371 52.1023L35.4343 79.0119C35.7886 80.0939 36.6814 80.7917 37.679 80.9794Z" fill="#9ACBCE"/>
</svg>
